<svg t="1624875376400" class="icon" viewBox="0 0 1024 1024" version="1.1" xmlns="http://www.w3.org/2000/svg" p-id="4718" width="180" height="180"><path d="M965.153288 0.032008L964.977244 0H59.374844l-0.176044 0.032008C26.486622 0.144036 0 25.814454 0 57.51838v907.12278a59.374844 59.374844 0 0 0 59.374844 59.35884h905.6024a59.374844 59.374844 0 0 0 59.374844-59.35884V57.502376c0-31.687922-26.486622-57.35834-59.1988-57.470368z" fill="#2a2e36" p-id="4719" data-spm-anchor-id="a313x.7781069.0.i63" class=""></path><path d="M928.328082 191.951988h-864.216054V928.12003c0 17.668417 14.339585 32.024006 32.008002 32.024006h832.208052a32.008002 32.008002 0 0 0 32.008002-32.024006V191.951988h-32.008002z" fill="#FFFFFF" p-id="4720"></path><path d="M512.224056 576.064016c-88.390098 0-160.04001 71.649912-160.04001 160.04001a32.008002 32.008002 0 0 0 32.008002 31.991998h256.064016a32.008002 32.008002 0 0 0 32.008002-31.991998c0-88.390098-71.665916-160.04001-160.04001-160.04001z" fill="#1062fe" p-id="4721" data-spm-anchor-id="a313x.7781069.0.i67" class="selected"></path><path d="M256.16004 480.024006a64.016004 48.012003 90 1 0 96.024006 0 64.016004 48.012003 90 1 0-96.024006 0Z" fill="#1062fe" p-id="4722" data-spm-anchor-id="a313x.7781069.0.i66" class="selected"></path><path d="M672.264066 480.024006a64.016004 48.012003 90 1 0 96.024006 0 64.016004 48.012003 90 1 0-96.024006 0Z" fill="#1062fe" p-id="4723" data-spm-anchor-id="a313x.7781069.0.i65" class="selected"></path><path d="M736.28007 63.935984l-0.16004 0.016004H96.12003a32.008002 32.008002 0 0 0 0 64.016004h640.16004a32.008002 32.008002 0 0 0 0-64.032008z m96.024006 0a32.008002 32.008002 0 1 0 0.032008 64.048012 32.008002 32.008002 0 0 0-0.032008-64.048012z m96.024006 0a32.008002 32.008002 0 1 0 0.032008 64.048012 32.008002 32.008002 0 0 0-0.032008-64.048012z" fill="#FFFFFF" p-id="4724"></path></svg>