<svg t="1624875296325" class="icon" viewBox="0 0 1024 1024" version="1.1" xmlns="http://www.w3.org/2000/svg" p-id="4174" width="180" height="180"><path d="M965.138204 0.048011C965.074189 0.048011 965.026178 0 964.962163 0H59.373916c-0.064015 0-0.112026 0.048011-0.176041 0.048011C26.486208 0.12803 0 25.81405 0 57.517481v907.108603a59.373916 59.373916 0 0 0 59.373916 59.357912h905.588247a59.373916 59.373916 0 0 0 59.373916-59.357912V57.501477c0-31.687427-26.486208-57.373447-59.197875-57.453466z" fill="#2a2e36" p-id="4175" data-spm-anchor-id="a313x.7781069.0.i45" class=""></path><path d="M928.313573 191.932984h-864.202547v736.172541a32.007502 32.007502 0 0 0 32.007502 32.007501h832.195045a32.007502 32.007502 0 0 0 32.007502-32.007501v-736.172541h-32.007502z" fill="#FFFFFF" p-id="4176"></path><path d="M416.193545 688.065265a112.026256 96.022505 90 1 0 192.045011 0 112.026256 96.022505 90 1 0-192.045011 0Z" fill="#1062fe" p-id="4177" data-spm-anchor-id="a313x.7781069.0.i50" class="selected"></path><path d="M256.156037 480.016504a64.015004 48.011253 90 1 0 96.022505 0 64.015004 48.011253 90 1 0-96.022505 0Z" fill="#1062fe" p-id="4178" data-spm-anchor-id="a313x.7781069.0.i49" class="selected"></path><path d="M672.253559 480.016504a64.015004 48.011253 90 1 0 96.022506 0 64.015004 48.011253 90 1 0-96.022506 0Z" fill="#1062fe" p-id="4179" data-spm-anchor-id="a313x.7781069.0.i48" class="selected"></path><path d="M736.268563 63.902977l-0.320075 0.032008H96.118528a32.007502 32.007502 0 0 0 0 64.015003h640.150035a32.007502 32.007502 0 0 0 32.007502-32.007501v-0.016004a32.007502 32.007502 0 0 0-32.007502-32.023506z m96.022505 0a32.007502 32.007502 0 1 0 0.032008 64.047011 32.007502 32.007502 0 0 0-0.032008-64.047011z m96.022505 0a32.007502 32.007502 0 1 0 0.032008 64.047011 32.007502 32.007502 0 0 0-0.032008-64.047011z" fill="#FFFFFF" p-id="4180"></path></svg>