<svg t="1624875253780" class="icon" viewBox="0 0 1024 1024" version="1.1" xmlns="http://www.w3.org/2000/svg" p-id="3880" width="180" height="180"><path d="M965.138204 0.016004L964.962163 0H59.373916l-0.176041 0.016004C26.486208 0.12803 0 25.798046 0 57.517481v907.092599a59.373916 59.373916 0 0 0 59.373916 59.373916h905.588247a59.373916 59.373916 0 0 0 59.38992-59.373916V57.517481c0-31.719434-26.502211-57.389451-59.213879-57.501477z" fill="#2a2e36" p-id="3881" data-spm-anchor-id="a313x.7781069.0.i38" class=""></path><path d="M928.313573 191.932984h-864.202547V928.089521a32.007502 32.007502 0 0 0 32.007502 32.023505h832.195045a32.007502 32.007502 0 0 0 32.007502-32.023505V191.932984h-32.007502z" fill="#FFFFFF" p-id="3882"></path><path d="M736.268563 63.918981l-0.160038 0.016004H96.118528a32.007502 32.007502 0 0 0 0 64.015003h640.150035a32.007502 32.007502 0 0 0 0-64.031007z m96.022505 0a32.007502 32.007502 0 1 0 0.032008 64.047011 32.007502 32.007502 0 0 0-0.032008-64.047011z m96.022505 0a32.007502 32.007502 0 1 0 0.032008 64.047011 32.007502 32.007502 0 0 0-0.032008-64.047011z" fill="#FFFFFF" p-id="3883"></path><path d="M512.216051 415.985497a32.007502 32.007502 0 0 0-32.007502 32.007501v160.053513a32.007502 32.007502 0 0 0 64.015003 0V447.992998a32.007502 32.007502 0 0 0-32.007501-32.007501z m0 256.060014a32.007502 32.007502 0 1 0 0.016003 64.031007 32.007502 32.007502 0 0 0-0.016003-64.031007z" fill="#d81e06" p-id="3884" data-spm-anchor-id="a313x.7781069.0.i41" class="selected"></path></svg>