<svg t="1624875123139" class="icon" viewBox="0 0 1024 1024" version="1.1" xmlns="http://www.w3.org/2000/svg" p-id="3233" width="180" height="180"><path d="M965.138204 0.048011C965.074189 0.048011 965.026178 0 964.962163 0H59.373916c-0.048011 0-0.112026 0.048011-0.176041 0.048011C26.486208 0.144034 0 25.798046 0 57.517481v907.108603a59.373916 59.373916 0 0 0 59.373916 59.357912h905.588247c32.807689 0 59.373916-26.566226 59.373916-59.357912V57.501477c0-31.70343-26.486208-57.357443-59.197875-57.453466z" fill="#2a2e36" p-id="3234" data-spm-anchor-id="a313x.7781069.0.i20" class=""></path><path d="M928.313573 191.948988h-864.202547v736.156537a32.007502 32.007502 0 0 0 32.007502 32.007501h832.195045a32.007502 32.007502 0 0 0 32.007502-32.007501V191.948988h-32.007502z" fill="#FFFFFF" p-id="3235"></path><path d="M672.253559 512.040009a32.007502 32.007502 0 0 0-54.652809-22.6133l-137.392201 137.392202-73.377198-73.377198a32.007502 32.007502 0 1 0-45.258607 45.258607l95.990497 95.990498c5.777354 5.793358 13.795233 9.394202 22.645308 9.394202s16.867953-3.600844 22.645307-9.394202l160.005502-160.005501c5.793358-5.793358 9.394202-13.795233 9.394201-22.645308z" fill="#1062fe" p-id="3236" data-spm-anchor-id="a313x.7781069.0.i23" class="selected"></path><path d="M736.268563 63.918981l-0.160038 0.016004H96.118528a32.007502 32.007502 0 0 0 0 64.015003h640.150035a32.039509 32.039509 0 0 0 0-64.031007z m96.022505 0a32.007502 32.007502 0 1 0 0.032008 64.047011 32.007502 32.007502 0 0 0-0.032008-64.047011z m96.022505 0a32.007502 32.007502 0 1 0 0.032008 64.047011 32.007502 32.007502 0 0 0-0.032008-64.047011z" fill="#FFFFFF" p-id="3237"></path></svg>